<svg width="84" height="24" viewBox="0 0 84 24" fill="none" xmlns="http://www.w3.org/2000/svg">
<path d="M51.1 2.5C50.2 2.7 49.05 3.25 48.55 3.7C47.65 4.5 47.5 4.5 45.95 3.55C43.9 2.3 39.65 2.15 38.2 3.25C37 4.15 36.45 4.2 36.65 3.35C36.7 2.95 36.1 2.75 34.75 2.75H32.75L32.6 12.35L32.5 22H35H37.5V15.05C37.5 9.35 37.65 7.9 38.3 7.3C39.4 6.2 41.8 6.3 43 7.5C43.9 8.4 44 9.15 44 15.25V22H46.25H48.5V15.1C48.5 7.4 48.85 6.5 51.8 6.5C54.95 6.5 55.25 7.15 55.4 14.95L55.6 22H57.8H60V14.75C60 9.6 59.8 6.95 59.3 5.75C58.2 3.15 54.5 1.65 51.1 2.5Z" fill="#F8FAF9"/>
<path d="M70.5001 2.55078C67.9501 3.35078 66.1001 4.85078 64.9501 7.10078C62.1501 12.6008 63.8501 19.3008 68.7001 21.8508C70.7501 22.9508 75.7501 22.9508 77.8501 21.8508C79.5501 20.9508 82.6001 17.5508 82.2501 16.9508C82.1001 16.7508 81.2001 16.4508 80.2501 16.3008C78.7501 16.0008 78.2001 16.1508 76.9501 17.2008C73.8501 19.8008 69.5501 18.4008 68.5001 14.4508C67.5501 10.9008 69.3501 7.10078 72.4001 6.35078C74.0501 5.95078 76.8501 6.85078 77.7001 8.10078C78.3001 8.95078 78.7501 9.05078 80.2001 8.80078C82.5501 8.35078 82.7001 7.95078 81.3501 6.00078C79.3501 3.00078 74.3501 1.40078 70.5001 2.55078Z" fill="#F8FAF9"/>
<path d="M1.5 3.20078C1.5 3.80078 3.85 11.7008 6.55 20.4008C7.1 22.0008 7.15 22.0508 9.6 21.9008L12.15 21.7508L13.9 15.6008C14.9 12.2508 15.85 9.65078 16 9.85078C16.2 10.1008 17.1 12.9008 18 16.1508L19.65 22.0508L22.2 21.9008L24.75 21.7508L27.3 13.5008C31.05 1.40078 30.95 2.50078 28.3 2.50078H26.05L24.8 6.60078C24.1 8.90078 23.25 11.8508 22.85 13.2508L22.15 15.7508L21.1 12.2508C20.5 10.3008 19.65 7.35078 19.2 5.60078L18.35 2.50078H16H13.65L11.75 9.05078C10.65 12.7508 9.65 15.3008 9.45 14.9008C9.3 14.5508 8.5 12.1008 7.8 9.50078C5.85 2.45078 5.85 2.50078 3.5 2.50078C2.1 2.50078 1.5 2.70078 1.5 3.20078Z" fill="#F8FAF9"/>
</svg>
